<?xml version="1.0" encoding="utf-8"?>
<!-- Generator: Adobe Illustrator 24.3.0, SVG Export Plug-In . SVG Version: 6.00 Build 0)  -->
<svg version="1.1" id="Слой_1" xmlns="http://www.w3.org/2000/svg" xmlns:xlink="http://www.w3.org/1999/xlink" x="0px" y="0px"
	 viewBox="0 0 144.5 20.4" style="enable-background:new 0 0 144.5 20.4;" xml:space="preserve">
<style type="text/css">
	.st0{fill-rule:evenodd;clip-rule:evenodd;fill:#FEFEFE;}
</style>
<path class="st0" d="M0,10.2C0,4.6,4.4,0,10.6,0c3.8,0,6,1.4,7.9,3.2l-2.7,3C14.2,4.8,12.9,4,10.6,4c-3.4,0-5.9,2.8-5.9,6.2
	c0,3.4,2.4,6.2,5.9,6.2c2.3,0,3.7-0.9,5.3-2.3l2.8,3c-2.1,2.2-4.4,3.4-8.3,3.4C4.4,20.4,0,15.9,0,10.2z"/>
<path class="st0" d="M22.4,0.3h17v19.8h-4.5V4.3h-8v15.8h-4.5V0.3z"/>
<path class="st0" d="M44.2,0.3H49l5.3,8.4l5.4-8.4h4.8v19.8h-4.4V7.2l-5.7,8.4h-0.1l-5.7-8.4v12.8h-4.4V0.3z"/>
<path class="st0" d="M69.5,0.3h4.5V9l8.3-8.6h5.4l-8.3,8.4L88,20.1h-5.4l-6.3-8.4l-2.4,2.4v6h-4.5V0.3z"/>
<path class="st0" d="M144.5,3c0,1.4-1.2,2.5-2.6,2.5c-1.4,0-2.6-1.1-2.6-2.5s1.2-2.5,2.6-2.5C143.3,0.5,144.5,1.6,144.5,3z"/>
<path class="st0" d="M135.4,3c0,1.4-1.2,2.5-2.6,2.5c-1.4,0-2.6-1.1-2.6-2.5s1.2-2.5,2.6-2.5C134.3,0.5,135.4,1.6,135.4,3z"/>
<path class="st0" d="M126.4,3c0,1.4-1.2,2.5-2.6,2.5c-1.4,0-2.6-1.1-2.6-2.5s1.2-2.5,2.6-2.5C125.2,0.5,126.4,1.6,126.4,3z"/>
<path class="st0" d="M114.7,5.5c-1.4,0-2.6-1.1-2.6-2.5s1.2-2.5,2.6-2.5c1.4,0,2.6,1.1,2.6,2.5S116.2,5.5,114.7,5.5z"/>
<path class="st0" d="M105.7,5.5c-1.4,0-2.6-1.1-2.6-2.5s1.2-2.5,2.6-2.5c1.4,0,2.6,1.1,2.6,2.5S107.1,5.5,105.7,5.5z"/>
<path class="st0" d="M96.7,5.5c-1.4,0-2.6-1.1-2.6-2.5s1.2-2.5,2.6-2.5c1.4,0,2.6,1.1,2.6,2.5S98.1,5.5,96.7,5.5z"/>
<path class="st0" d="M144.5,10.4c0,1.4-1.2,2.5-2.6,2.5c-1.4,0-2.6-1.1-2.6-2.5c0-1.4,1.2-2.5,2.6-2.5C143.3,7.8,144.5,9,144.5,10.4
	z"/>
<path class="st0" d="M135.4,10.4c0,1.4-1.2,2.5-2.6,2.5c-1.4,0-2.6-1.1-2.6-2.5c0-1.4,1.2-2.5,2.6-2.5C134.3,7.8,135.4,9,135.4,10.4
	z"/>
<path class="st0" d="M123.8,12.9c-1.4,0-2.6-1.1-2.6-2.5c0-1.4,1.2-2.5,2.6-2.5c1.4,0,2.6,1.1,2.6,2.5
	C126.4,11.8,125.2,12.9,123.8,12.9z"/>
<path class="st0" d="M114.7,12.9c-1.4,0-2.6-1.1-2.6-2.5c0-1.4,1.2-2.5,2.6-2.5c1.4,0,2.6,1.1,2.6,2.5
	C117.3,11.8,116.2,12.9,114.7,12.9z"/>
<path class="st0" d="M105.7,12.9c-1.4,0-2.6-1.1-2.6-2.5c0-1.4,1.2-2.5,2.6-2.5c1.4,0,2.6,1.1,2.6,2.5
	C108.3,11.8,107.1,12.9,105.7,12.9z"/>
<path class="st0" d="M96.7,12.9c-1.4,0-2.6-1.1-2.6-2.5c0-1.4,1.2-2.5,2.6-2.5c1.4,0,2.6,1.1,2.6,2.5C99.3,11.8,98.1,12.9,96.7,12.9
	z"/>
<path class="st0" d="M144.5,17.7c0,1.4-1.2,2.5-2.6,2.5c-1.4,0-2.6-1.1-2.6-2.5s1.2-2.5,2.6-2.5C143.3,15.2,144.5,16.3,144.5,17.7z"
	/>
<path class="st0" d="M135.4,17.7c0,1.4-1.2,2.5-2.6,2.5c-1.4,0-2.6-1.1-2.6-2.5s1.2-2.5,2.6-2.5C134.3,15.2,135.4,16.3,135.4,17.7z"
	/>
<path class="st0" d="M126.4,17.7c0,1.4-1.2,2.5-2.6,2.5c-1.4,0-2.6-1.1-2.6-2.5s1.2-2.5,2.6-2.5C125.2,15.2,126.4,16.3,126.4,17.7z"
	/>
<path class="st0" d="M114.7,20.2c-1.4,0-2.6-1.1-2.6-2.5s1.2-2.5,2.6-2.5c1.4,0,2.6,1.1,2.6,2.5S116.2,20.2,114.7,20.2z"/>
<path class="st0" d="M105.7,20.2c-1.4,0-2.6-1.1-2.6-2.5s1.2-2.5,2.6-2.5c1.4,0,2.6,1.1,2.6,2.5S107.1,20.2,105.7,20.2z"/>
<path class="st0" d="M96.7,20.2c-1.4,0-2.6-1.1-2.6-2.5s1.2-2.5,2.6-2.5c1.4,0,2.6,1.1,2.6,2.5S98.1,20.2,96.7,20.2z"/>
</svg>
