<svg viewBox="0 0 144.5 20.4" xmlns="http://www.w3.org/2000/svg"><path clip-rule="evenodd" d="m0 10.2c0-5.6 4.4-10.2 10.6-10.2 3.8 0 6 1.4 7.9 3.2l-2.7 3c-1.6-1.4-2.9-2.2-5.2-2.2-3.4 0-5.9 2.8-5.9 6.2s2.4 6.2 5.9 6.2c2.3 0 3.7-.9 5.3-2.3l2.8 3c-2.1 2.2-4.4 3.4-8.3 3.4-6-.1-10.4-4.6-10.4-10.3zm22.4-9.9h17v19.8h-4.5v-15.8h-8v15.8h-4.5zm21.8 0h4.8l5.3 8.4 5.4-8.4h4.8v19.8h-4.4v-12.9l-5.7 8.4h-.1l-5.7-8.4v12.8h-4.4zm25.3 0h4.5v8.7l8.3-8.6h5.4l-8.3 8.4 8.6 11.3h-5.4l-6.3-8.4-2.4 2.4v6h-4.5v-19.8zm75 2.7c0 1.4-1.2 2.5-2.6 2.5s-2.6-1.1-2.6-2.5 1.2-2.5 2.6-2.5 2.6 1.1 2.6 2.5zm-9.1 0c0 1.4-1.2 2.5-2.6 2.5s-2.6-1.1-2.6-2.5 1.2-2.5 2.6-2.5c1.5 0 2.6 1.1 2.6 2.5zm-9 0c0 1.4-1.2 2.5-2.6 2.5s-2.6-1.1-2.6-2.5 1.2-2.5 2.6-2.5 2.6 1.1 2.6 2.5zm-11.7 2.5c-1.4 0-2.6-1.1-2.6-2.5s1.2-2.5 2.6-2.5 2.6 1.1 2.6 2.5-1.1 2.5-2.6 2.5zm-9 0c-1.4 0-2.6-1.1-2.6-2.5s1.2-2.5 2.6-2.5 2.6 1.1 2.6 2.5-1.2 2.5-2.6 2.5zm-9 0c-1.4 0-2.6-1.1-2.6-2.5s1.2-2.5 2.6-2.5 2.6 1.1 2.6 2.5-1.2 2.5-2.6 2.5zm47.8 4.9c0 1.4-1.2 2.5-2.6 2.5s-2.6-1.1-2.6-2.5 1.2-2.5 2.6-2.5c1.4-.1 2.6 1.1 2.6 2.5zm-9.1 0c0 1.4-1.2 2.5-2.6 2.5s-2.6-1.1-2.6-2.5 1.2-2.5 2.6-2.5c1.5-.1 2.6 1.1 2.6 2.5zm-11.6 2.5c-1.4 0-2.6-1.1-2.6-2.5s1.2-2.5 2.6-2.5 2.6 1.1 2.6 2.5-1.2 2.5-2.6 2.5zm-9.1 0c-1.4 0-2.6-1.1-2.6-2.5s1.2-2.5 2.6-2.5 2.6 1.1 2.6 2.5-1.1 2.5-2.6 2.5zm-9 0c-1.4 0-2.6-1.1-2.6-2.5s1.2-2.5 2.6-2.5 2.6 1.1 2.6 2.5-1.2 2.5-2.6 2.5zm-9 0c-1.4 0-2.6-1.1-2.6-2.5s1.2-2.5 2.6-2.5 2.6 1.1 2.6 2.5-1.2 2.5-2.6 2.5zm47.8 4.8c0 1.4-1.2 2.5-2.6 2.5s-2.6-1.1-2.6-2.5 1.2-2.5 2.6-2.5 2.6 1.1 2.6 2.5zm-9.1 0c0 1.4-1.2 2.5-2.6 2.5s-2.6-1.1-2.6-2.5 1.2-2.5 2.6-2.5c1.5 0 2.6 1.1 2.6 2.5zm-9 0c0 1.4-1.2 2.5-2.6 2.5s-2.6-1.1-2.6-2.5 1.2-2.5 2.6-2.5 2.6 1.1 2.6 2.5zm-11.7 2.5c-1.4 0-2.6-1.1-2.6-2.5s1.2-2.5 2.6-2.5 2.6 1.1 2.6 2.5-1.1 2.5-2.6 2.5zm-9 0c-1.4 0-2.6-1.1-2.6-2.5s1.2-2.5 2.6-2.5 2.6 1.1 2.6 2.5-1.2 2.5-2.6 2.5zm-9 0c-1.4 0-2.6-1.1-2.6-2.5s1.2-2.5 2.6-2.5 2.6 1.1 2.6 2.5-1.2 2.5-2.6 2.5z" fill="#fefefe" fill-rule="evenodd"/></svg>